<?xml version="1.0" standalone="no"?>
<!DOCTYPE svg PUBLIC "-//W3C//DTD SVG 20010904//EN"
 "http://www.w3.org/TR/2001/REC-SVG-20010904/DTD/svg10.dtd">
<svg version="1.0" xmlns="http://www.w3.org/2000/svg"
 width="2709.000000pt" height="1477.000000pt" viewBox="0 0 2709.000000 1477.000000"
 preserveAspectRatio="xMidYMid meet">

<g transform="translate(0.000000,1477.000000) scale(0.100000,-0.100000)"
fill="#000000" stroke="none">
<path d="M20423 13227 l-2862 -1532 6 -580 c3 -319 6 -580 7 -581 0 -1 450
-384 999 -853 549 -469 1004 -854 1010 -857 7 -2 37 20 67 51 l54 55 -26 27
c-14 16 -331 360 -705 765 l-680 736 -6 288 c-4 158 -7 348 -7 423 l0 136
2168 1162 2167 1162 3 -92 c1 -51 -34 -2551 -78 -5557 -44 -3006 -80 -5536
-80 -5622 l0 -158 330 0 330 0 0 26 c0 113 170 12016 175 12242 3 160 3 292
-2 291 -4 0 -1296 -690 -2870 -1532z"/>
<path d="M24080 8470 l0 -6270 260 0 260 0 0 6060 0 6059 -255 211 c-140 115
-257 210 -260 210 -3 0 -5 -2821 -5 -6270z"/>
<path d="M25400 7985 l0 -5775 240 0 240 0 0 2168 c0 1192 3 3695 7 5562 l6
3395 -233 205 c-128 113 -239 209 -247 213 -11 7 -13 -962 -13 -5768z"/>
<path d="M26630 7415 l0 -5205 230 0 230 0 0 4993 0 4994 -230 212 -230 212 0
-5206z"/>
<path d="M17566 8576 c-8 -1842 -1 -3681 15 -4069 27 -688 166 -1188 442
-1597 86 -126 310 -355 435 -444 412 -292 945 -433 1567 -413 853 28 1348 352
1629 1066 104 265 189 681 226 1106 27 314 30 610 30 2803 l0 2292 165 0 165
0 0 65 0 65 -355 0 -355 0 0 -65 0 -65 165 0 165 0 0 -2249 c0 -2236 -3 -2465
-35 -2816 -83 -896 -315 -1459 -730 -1767 -147 -110 -379 -210 -598 -257 -234
-51 -633 -68 -854 -36 -503 71 -825 303 -1043 750 -182 371 -279 857 -310
1536 -6 135 -10 1220 -10 2719 l-1 2495 -320 275 c-177 151 -335 287 -353 302
l-33 27 -7 -1723z"/>
<path d="M5780 5835 l0 -3625 350 0 350 0 0 3625 0 3625 -350 0 -350 0 0
-3625z"/>
<path d="M15 9423 c5 -23 2180 -7097 2216 -7210 l11 -33 369 0 c203 0 369 3
369 8 0 4 -38 127 -83 274 l-84 267 1022 3298 1021 3298 122 3 122 3 0 59 0
60 -299 0 -299 0 -4 -60 -3 -60 151 -2 151 -3 -1005 -3235 c-553 -1779 -1007
-3237 -1008 -3239 -2 -2 -6 -2 -8 0 -3 3 -2006 6457 -2042 6582 -5 16 -31 17
-366 17 l-360 0 7 -27z"/>
<path d="M7793 9443 l-273 -3 -2 -3370 c-2 -1854 -3 -3481 -3 -3617 l0 -248
353 -3 352 -2 1 2272 c0 2132 1 2271 17 2248 9 -14 44 -54 77 -88 184 -195
533 -301 1062 -322 388 -16 596 -61 836 -181 537 -270 868 -853 1011 -1779 50
-322 78 -665 96 -1180 16 -449 30 -786 37 -877 l6 -83 151 0 c83 0 209 -3 279
-7 l128 -6 -4 1089 c-3 1052 -4 1093 -24 1220 -29 176 -58 297 -105 434 -244
711 -863 1201 -1711 1356 -221 40 -217 37 -92 58 648 104 1195 397 1496 800
78 104 172 295 203 414 80 301 51 643 -77 897 -228 454 -820 795 -1607 924
-311 51 -368 54 -1175 56 -418 0 -883 0 -1032 -2z m1642 -64 c122 -15 292 -59
397 -104 169 -71 265 -150 321 -265 29 -59 32 -73 32 -160 0 -84 -3 -102 -28
-151 -73 -150 -229 -259 -817 -574 -532 -285 -750 -424 -905 -580 -73 -73
-115 -125 -154 -192 -30 -51 -56 -93 -58 -93 -1 0 -3 479 -3 1065 l0 1065 563
0 c346 0 597 -4 652 -11z m645 -116 c393 -129 706 -375 862 -678 95 -184 136
-356 145 -607 17 -485 -127 -855 -455 -1170 -307 -294 -727 -448 -1221 -448
-540 0 -1009 172 -1138 417 -77 145 -69 316 21 499 112 227 374 419 1114 818
392 211 629 367 722 474 191 221 129 509 -149 693 -67 45 -72 50 -41 44 19 -4
82 -23 140 -42z"/>
<path d="M12347 9073 c-21 -208 -41 -393 -44 -411 -5 -30 -3 -33 16 -30 18 2
27 18 47 78 100 296 251 464 475 527 50 14 99 17 229 17 142 -1 208 -7 480
-47 342 -50 450 -63 638 -73 l122 -7 0 -3458 0 -3459 344 0 343 0 7 933 c3
512 9 2069 13 3460 l6 2527 36 0 c106 0 402 25 681 56 377 43 588 49 715 20
166 -37 291 -122 381 -257 46 -69 134 -267 134 -301 0 -12 8 -18 25 -18 21 0
24 4 20 28 -3 15 -21 185 -40 377 -19 193 -38 365 -41 383 l-5 32 -2272 0
-2272 0 -38 -377z"/>
<path d="M19835 1038 c-34 -40 -35 -43 -16 -46 18 -3 57 22 126 80 5 4 -10 8
-32 8 -36 0 -46 -5 -78 -42z"/>
<path d="M19710 538 c-74 -204 -136 -374 -138 -379 -2 -5 7 -9 21 -9 22 0 29
12 74 137 l50 138 129 3 129 2 50 -140 c44 -124 52 -140 72 -140 13 0 23 2 23
4 0 4 -271 750 -273 753 -1 0 -63 -166 -137 -369z m193 87 c26 -71 47 -133 47
-137 0 -5 -48 -8 -106 -8 -81 0 -105 3 -102 13 75 208 102 276 108 270 4 -4
28 -66 53 -138z"/>
<path d="M5057 889 c-61 -14 -117 -48 -172 -103 -87 -87 -122 -195 -104 -324
11 -80 45 -147 105 -206 187 -188 498 -131 612 112 24 50 27 69 26 157 0 79
-5 110 -21 145 -78 171 -264 262 -446 219z m253 -75 c195 -106 235 -370 78
-526 -62 -63 -126 -91 -217 -96 -61 -3 -87 0 -133 18 -75 28 -150 96 -185 168
-24 49 -28 69 -28 142 0 71 4 94 26 140 31 65 96 132 157 161 89 44 215 41
302 -7z"/>
<path d="M9509 887 c-108 -31 -211 -123 -250 -225 -16 -42 -22 -79 -23 -142 0
-75 3 -93 31 -152 137 -293 543 -299 685 -10 30 61 33 74 33 162 0 83 -4 103
-28 156 -36 78 -113 154 -192 190 -70 32 -183 41 -256 21z m176 -42 c86 -14
172 -79 221 -167 27 -49 29 -61 29 -153 0 -84 -4 -107 -23 -147 -76 -153 -259
-227 -417 -167 -82 31 -163 112 -194 194 -30 77 -26 186 9 258 30 63 99 133
157 159 49 21 125 37 158 32 11 -1 38 -6 60 -9z"/>
<path d="M10784 881 c-54 -25 -84 -73 -84 -137 0 -81 49 -139 153 -180 26 -10
69 -35 95 -54 89 -67 107 -180 40 -256 -41 -47 -77 -64 -135 -64 -70 0 -121
33 -153 97 -25 52 -46 66 -56 38 -15 -38 45 -124 110 -157 50 -26 146 -29 191
-6 137 72 167 259 57 362 -17 15 -72 49 -123 75 -103 51 -139 89 -139 147 0
41 41 91 85 103 42 11 91 -5 116 -38 14 -19 27 -27 40 -24 25 7 24 15 -8 54
-50 59 -117 73 -189 40z"/>
<path d="M14845 887 c-110 -37 -195 -112 -242 -212 -24 -52 -28 -72 -28 -155
0 -88 3 -101 33 -162 74 -150 234 -235 396 -210 128 20 233 100 289 220 28 59
31 77 31 152 -1 110 -27 180 -95 255 -73 79 -153 116 -261 121 -53 3 -98 -1
-123 -9z m233 -59 c64 -24 139 -95 172 -164 35 -73 39 -181 9 -259 -31 -82
-112 -163 -194 -194 -158 -60 -341 14 -417 167 -19 40 -23 63 -23 147 0 92 2
104 29 153 85 153 253 213 424 150z"/>
<path d="M22879 886 c-68 -18 -132 -59 -183 -118 -64 -73 -89 -142 -90 -248 0
-75 3 -93 31 -152 136 -291 543 -299 683 -14 56 114 50 264 -15 365 -25 40
-95 108 -136 133 -71 44 -198 59 -290 34z m237 -61 c213 -95 264 -374 99 -539
-61 -61 -124 -88 -215 -94 -105 -6 -175 21 -251 97 -75 76 -103 146 -97 251
14 234 251 380 464 285z"/>
<path d="M24153 879 c-55 -27 -83 -72 -83 -133 0 -82 36 -127 140 -175 129
-58 189 -124 190 -208 1 -133 -149 -217 -266 -148 -31 18 -49 39 -66 75 -23
50 -44 63 -54 35 -8 -20 13 -70 44 -107 39 -46 98 -71 167 -71 67 0 106 16
152 62 86 86 84 231 -5 315 -17 15 -72 49 -123 75 -111 55 -144 92 -136 155
13 97 141 134 198 57 14 -19 27 -27 40 -24 25 7 24 15 -8 54 -51 60 -119 74
-190 38z"/>
<path d="M2650 520 c0 -363 0 -370 20 -370 19 0 20 7 20 130 l0 130 90 0 c103
0 147 14 198 63 125 120 93 321 -62 393 -44 20 -67 24 -158 24 l-108 0 0 -370z
m268 293 c120 -74 122 -246 4 -327 -38 -27 -52 -31 -137 -34 l-95 -4 0 194 c0
107 3 198 8 202 4 5 45 6 91 3 69 -5 93 -11 129 -34z"/>
<path d="M3720 520 c0 -363 0 -370 20 -370 19 0 20 7 20 130 l0 130 68 0 67 0
81 -128 c67 -104 86 -128 108 -130 14 -2 26 -1 26 2 0 3 -34 59 -76 123 -42
65 -78 123 -81 129 -2 6 7 14 22 18 38 10 106 75 128 125 23 52 25 142 5 191
-23 55 -68 101 -123 126 -43 20 -66 24 -157 24 l-108 0 0 -370z m247 306 c138
-71 151 -251 25 -341 -38 -26 -52 -30 -137 -33 l-95 -4 0 194 c0 107 3 198 8
202 11 13 168 -1 199 -18z"/>
<path d="M6440 593 c0 -174 -4 -313 -10 -335 -20 -70 -92 -90 -149 -42 -17 14
-31 32 -31 39 0 19 -20 29 -32 17 -16 -16 18 -80 54 -102 45 -27 117 -27 152
1 55 43 56 51 56 399 0 313 0 320 -20 320 -20 0 -20 -7 -20 -297z"/>
<path d="M7190 520 l0 -370 185 0 185 0 0 25 0 25 -165 0 -165 0 0 150 0 150
165 0 c158 0 165 1 165 20 0 19 -7 20 -165 20 l-166 0 3 153 3 152 163 3 c154
2 162 4 162 22 0 19 -7 20 -185 20 l-185 0 0 -370z"/>
<path d="M8200 870 c0 -19 7 -20 95 -20 l95 0 0 -350 c0 -343 0 -350 20 -350
19 0 20 8 22 348 l3 347 93 3 c84 2 92 4 92 22 0 19 -8 20 -210 20 -203 0
-210 -1 -210 -20z"/>
<path d="M12470 520 l0 -370 25 0 25 0 0 370 0 370 -25 0 -25 0 0 -370z"/>
<path d="M13230 520 c0 -363 0 -370 20 -370 20 0 20 7 20 320 0 176 3 320 8
320 4 0 63 -97 131 -216 69 -118 129 -222 135 -230 9 -12 36 29 136 202 69
119 130 224 137 233 10 13 12 -51 13 -306 l0 -323 25 0 25 0 0 370 0 370 -27
0 c-26 -1 -39 -19 -162 -236 -115 -201 -137 -233 -147 -220 -6 10 -69 116
-139 236 -110 191 -130 220 -151 220 l-24 0 0 -370z"/>
<path d="M16020 520 l0 -373 104 5 c89 4 110 8 149 32 154 89 171 304 34 421
-22 19 -47 35 -54 35 -18 0 -17 3 13 47 37 54 30 112 -20 162 -36 36 -37 36
-131 39 l-95 4 0 -372z m195 300 c30 -28 39 -66 24 -102 -16 -39 -57 -58 -124
-58 l-55 0 0 88 c0 49 3 92 8 96 4 5 33 6 65 3 42 -4 66 -12 82 -27z m24 -230
c139 -71 153 -252 28 -354 -35 -28 -46 -31 -123 -35 l-84 -3 0 206 0 206 70 0
c51 0 82 -6 109 -20z"/>
<path d="M17090 520 c0 -363 0 -370 20 -370 20 0 20 7 20 370 0 363 0 370 -20
370 -20 0 -20 -7 -20 -370z"/>
<path d="M17850 520 l0 -370 160 0 160 0 0 25 0 25 -140 0 -140 0 0 345 c0
338 0 345 -20 345 -20 0 -20 -7 -20 -370z"/>
<path d="M18860 520 c0 -363 0 -370 20 -370 20 0 20 7 20 370 0 363 0 370 -20
370 -20 0 -20 -7 -20 -370z"/>
<path d="M20780 520 c0 -361 0 -370 20 -370 18 0 20 8 22 128 l3 127 66 3 66
3 83 -131 c68 -107 87 -130 106 -130 13 0 24 3 24 7 0 3 -36 62 -81 130 -44
69 -79 126 -77 127 2 1 18 8 36 16 18 7 52 35 76 61 94 104 83 250 -24 341
-53 46 -98 58 -219 58 l-101 0 0 -370z m260 300 c118 -60 135 -235 30 -323
-40 -34 -89 -47 -177 -47 l-73 0 0 193 c0 107 3 197 8 201 14 16 169 -2 212
-24z"/>
<path d="M21860 520 c0 -363 0 -370 20 -370 20 0 20 7 20 370 0 363 0 370 -20
370 -20 0 -20 -7 -20 -370z"/>
</g>
</svg>
