<?xml version="1.0" standalone="no"?>
<!DOCTYPE svg PUBLIC "-//W3C//DTD SVG 20010904//EN"
 "http://www.w3.org/TR/2001/REC-SVG-20010904/DTD/svg10.dtd">
<svg version="1.0" xmlns="http://www.w3.org/2000/svg"
 width="2709.000000pt" height="1477.000000pt" viewBox="0 0 2709.000000 1477.000000"
 preserveAspectRatio="xMidYMid meet">

<g transform="translate(0.000000,1477.000000) scale(0.100000,-0.100000)"
fill="#000000" stroke="none">
<path d="M20430 13234 l-2865 -1532 -3 -343 c-2 -189 0 -453 3 -586 l7 -242
946 -808 c521 -444 975 -832 1010 -862 l63 -54 61 60 61 61 -711 768 -711 769
-1 420 0 420 2160 1159 c1189 637 2163 1157 2165 1155 3 -4 -147 -10438 -160
-11096 l-6 -323 335 0 334 0 6 93 c7 115 179 12400 174 12443 l-3 31 -2865
-1533z"/>
<path d="M24080 8476 l0 -6276 258 0 259 0 6 3092 c4 1700 7 4426 7 6058 l0
2967 -239 197 c-132 108 -251 206 -265 217 l-26 20 0 -6275z"/>
<path d="M25390 7986 l0 -5786 250 0 250 0 0 5573 -1 5572 -240 210 c-132 116
-244 212 -250 213 -5 2 -9 -2176 -9 -5782z"/>
<path d="M26630 7411 l0 -5211 230 0 230 0 0 5003 -1 5002 -185 170 c-102 94
-206 187 -230 208 l-44 39 0 -5211z"/>
<path d="M17561 8098 c1 -2331 11 -3686 29 -3853 97 -905 387 -1468 942 -1832
257 -169 558 -278 919 -335 126 -19 184 -22 464 -22 352 -1 441 8 663 65 291
75 507 194 697 385 297 298 475 731 569 1385 63 434 60 292 66 2974 l5 2450
168 3 167 2 0 65 0 65 -365 0 -365 0 0 -65 0 -65 168 -2 167 -3 3 -2105 c3
-2457 -2 -2716 -64 -3195 -108 -834 -375 -1350 -834 -1610 -274 -155 -672
-236 -1095 -222 -536 17 -903 197 -1147 561 -185 278 -306 646 -373 1137 -51
378 -49 223 -52 3116 l-3 2692 -353 303 c-193 167 -358 307 -364 312 -10 6
-13 -438 -12 -2206z"/>
<path d="M5772 5833 l3 -3628 355 0 355 0 3 3628 2 3627 -360 0 -360 0 2
-3627z"/>
<path d="M9 9423 c59 -200 2225 -7230 2230 -7236 4 -4 174 -6 377 -5 l370 3
-84 272 -85 272 1008 3253 c554 1789 1014 3274 1022 3301 l14 47 119 0 120 0
0 60 0 60 -305 0 -305 0 0 -60 0 -60 151 0 151 0 -6 -22 c-21 -84 -2002 -6448
-2006 -6448 -3 0 -465 1482 -1026 3293 l-1021 3292 -366 3 -366 2 8 -27z"/>
<path d="M7594 9443 l-71 -4 -6 -277 c-4 -152 -7 -1781 -7 -3619 l0 -3343 355
0 355 0 2 2267 3 2267 39 -53 c82 -111 228 -205 411 -265 221 -71 412 -100
765 -116 345 -14 543 -60 772 -177 622 -317 953 -1009 1062 -2223 22 -238 34
-475 51 -985 9 -247 20 -502 25 -565 5 -63 10 -123 10 -132 0 -17 20 -18 280
-18 l280 0 0 1048 c0 885 -2 1068 -16 1182 -54 468 -205 831 -479 1148 -337
390 -837 645 -1459 743 l-80 12 130 22 c742 127 1343 502 1588 993 85 169 126
355 126 566 0 459 -188 795 -598 1066 -324 215 -742 360 -1242 430 -253 36
-395 40 -1315 38 -500 -1 -942 -4 -981 -5z m1916 -77 c228 -43 451 -138 551
-236 122 -120 158 -284 94 -428 -68 -149 -241 -267 -957 -649 -300 -161 -560
-323 -688 -430 -104 -87 -164 -160 -277 -339 -9 -15 -12 216 -12 1037 -1 581
2 1059 6 1063 5 4 273 6 598 4 511 -4 603 -7 685 -22z m600 -118 c386 -133
681 -372 835 -678 135 -269 176 -611 115 -963 -111 -640 -630 -1116 -1333
-1221 -542 -82 -1196 66 -1401 317 -166 203 -119 534 109 762 150 149 447 341
920 595 418 224 617 351 741 475 108 107 137 166 142 289 3 74 0 103 -18 156
-38 114 -117 207 -245 290 -49 31 -50 32 -15 25 19 -4 87 -25 150 -47z"/>
<path d="M12380 9442 c0 -5 -18 -182 -40 -393 -22 -211 -40 -392 -40 -401 0
-12 8 -18 23 -18 20 0 26 10 46 73 56 177 155 340 253 417 187 148 361 165
903 85 343 -50 575 -75 702 -75 l83 0 0 -3459 0 -3458 68 -6 c37 -4 191 -7
343 -7 l276 0 7 498 c3 273 9 1832 12 3465 l7 2967 87 0 c122 0 301 15 620 52
225 27 313 33 485 33 193 0 216 -2 285 -23 107 -34 160 -64 230 -129 99 -91
165 -201 220 -365 20 -60 26 -68 48 -68 23 0 24 3 19 38 -3 20 -22 205 -43
410 l-38 372 -2278 0 c-1253 0 -2278 -4 -2278 -8z"/>
<path d="M19828 1035 c-44 -49 -46 -55 -17 -55 18 0 139 83 139 96 0 2 -19 4
-42 3 -37 -1 -48 -6 -80 -44z"/>
<path d="M19707 537 c-76 -206 -137 -377 -137 -381 0 -4 12 -6 26 -4 25 3 31
14 77 141 l50 137 124 0 c119 0 124 -1 132 -22 96 -267 92 -258 118 -258 20 0
24 4 20 20 -10 38 -260 725 -267 733 -4 4 -68 -160 -143 -366z m195 81 c26
-72 46 -133 44 -135 -2 -2 -48 -2 -103 -1 l-100 3 50 138 c27 75 52 135 55
132 4 -3 28 -65 54 -137z"/>
<path d="M5033 886 c-58 -19 -100 -47 -155 -103 -147 -150 -141 -394 14 -539
199 -186 523 -110 619 145 17 46 20 72 17 151 -3 85 -7 102 -37 158 -39 73
-98 130 -173 168 -45 24 -68 28 -148 31 -61 2 -110 -2 -137 -11z m260 -66 c61
-29 128 -96 159 -157 19 -40 23 -63 23 -143 0 -83 -3 -101 -27 -145 -32 -62
-104 -130 -166 -158 -71 -32 -189 -30 -263 5 -121 56 -192 166 -193 298 -1 66
3 84 32 142 39 79 101 138 176 168 70 28 190 23 259 -10z"/>
<path d="M9484 882 c-212 -75 -314 -324 -216 -525 38 -78 111 -148 190 -185
49 -23 70 -27 152 -27 123 0 193 30 275 116 83 87 100 131 100 259 0 93 -3
111 -27 162 -34 74 -112 152 -186 186 -75 35 -210 42 -288 14z m271 -64 c60
-31 124 -96 156 -158 33 -63 34 -203 2 -272 -30 -66 -96 -133 -162 -165 -47
-24 -69 -28 -136 -28 -137 1 -238 63 -297 183 -29 58 -33 76 -33 147 0 67 5
89 28 137 34 70 109 140 180 168 74 29 192 24 262 -12z"/>
<path d="M10774 881 c-73 -44 -100 -127 -66 -203 22 -51 53 -76 144 -117 72
-32 132 -80 154 -122 7 -15 14 -52 14 -82 0 -159 -196 -225 -299 -100 -16 19
-31 48 -35 64 -5 25 -8 27 -28 20 -13 -4 -22 -11 -22 -15 1 -4 4 -20 7 -36 8
-39 73 -109 122 -131 142 -65 307 42 307 200 1 108 -54 179 -187 241 -118 55
-158 106 -135 175 16 47 53 75 102 75 32 0 47 -7 75 -35 25 -25 41 -34 54 -30
24 8 24 20 -1 55 -41 58 -145 78 -206 41z"/>
<path d="M14807 876 c-106 -44 -187 -130 -223 -238 -23 -69 -16 -205 14 -271
31 -71 121 -159 195 -193 54 -25 74 -29 157 -29 88 0 101 3 161 32 213 105
284 367 152 561 -43 63 -128 127 -197 147 -77 23 -190 19 -259 -9z m257 -47
c73 -27 148 -96 183 -167 23 -48 28 -70 28 -137 0 -71 -4 -89 -33 -147 -59
-120 -160 -183 -297 -182 -99 0 -171 31 -235 100 -66 72 -85 123 -85 229 0 75
4 98 24 135 43 83 127 155 211 181 50 15 148 9 204 -12z"/>
<path d="M22853 882 c-114 -40 -204 -138 -239 -258 -51 -176 41 -372 214 -452
49 -23 70 -27 152 -27 86 0 101 3 160 31 79 37 150 107 188 183 24 50 27 67
27 161 0 99 -2 110 -32 171 -39 79 -102 140 -181 177 -75 35 -210 42 -289 14z
m272 -64 c60 -32 125 -97 156 -158 33 -67 38 -177 9 -252 -28 -75 -96 -150
-168 -185 -48 -24 -69 -28 -137 -28 -137 1 -238 63 -297 183 -29 58 -33 76
-33 147 0 67 5 89 28 137 34 70 109 140 180 168 74 29 192 24 262 -12z"/>
<path d="M24140 878 c-47 -32 -83 -101 -76 -151 8 -69 46 -112 141 -157 139
-66 187 -121 187 -212 0 -136 -161 -214 -270 -132 -19 15 -44 48 -56 74 -18
42 -24 47 -43 39 -19 -7 -21 -12 -14 -37 13 -43 26 -63 63 -99 131 -126 339
-53 372 130 19 101 -52 204 -180 263 -127 58 -170 116 -140 188 26 62 97 84
157 49 16 -10 32 -25 35 -35 6 -20 21 -23 44 -8 12 7 12 12 0 35 -23 44 -68
69 -129 73 -46 3 -62 0 -91 -20z"/>
<path d="M2640 520 l0 -370 30 0 30 0 0 125 0 125 60 0 c32 0 82 5 109 11 185
39 254 274 118 407 -63 61 -97 72 -232 72 l-115 0 0 -370z m259 300 c66 -33
111 -105 111 -178 0 -34 -27 -93 -58 -125 -44 -47 -74 -57 -167 -57 l-85 0 0
190 0 190 80 0 c60 0 90 -5 119 -20z"/>
<path d="M3710 520 l0 -370 25 0 25 0 0 125 0 125 69 0 68 0 79 -125 c74 -117
81 -125 111 -125 l33 0 -37 58 c-20 31 -58 90 -85 130 l-49 72 26 10 c154 59
202 261 92 386 -62 70 -99 84 -239 84 l-118 0 0 -370z m259 300 c63 -32 111
-105 111 -170 0 -37 -24 -93 -52 -126 -48 -54 -75 -64 -178 -64 l-90 0 0 190
0 190 85 0 c65 0 95 -5 124 -20z"/>
<path d="M6430 571 l0 -320 -24 -28 c-19 -22 -32 -28 -66 -28 -34 0 -47 6 -66
28 -13 16 -24 37 -24 48 0 21 -8 23 -29 10 -34 -22 20 -107 82 -130 39 -15 63
-14 104 6 72 34 73 38 73 406 l0 327 -25 0 -25 0 0 -319z"/>
<path d="M7180 520 l0 -370 190 0 190 0 0 25 0 25 -165 0 -166 0 3 148 3 147
163 3 162 2 0 25 0 25 -165 0 -165 0 0 145 0 145 165 0 165 0 0 25 0 25 -190
0 -190 0 0 -370z"/>
<path d="M8200 865 c0 -25 0 -25 95 -25 l95 0 0 -345 0 -345 25 0 25 0 0 345
0 345 90 0 c89 0 90 0 90 25 l0 25 -210 0 -210 0 0 -25z"/>
<path d="M12470 520 l0 -370 25 0 25 0 0 370 0 370 -25 0 -25 0 0 -370z"/>
<path d="M13230 520 l0 -370 25 0 25 0 2 317 3 317 134 -233 134 -233 31 54
c17 30 78 136 136 236 l105 181 3 -319 2 -320 25 0 25 0 0 370 0 370 -28 0
c-26 0 -38 -16 -161 -230 -73 -126 -137 -228 -141 -225 -5 3 -66 106 -137 230
-118 206 -130 224 -155 225 l-28 0 0 -370z"/>
<path d="M16020 520 l0 -370 88 0 c112 0 149 11 205 60 116 103 122 274 12
383 -21 20 -41 37 -44 37 -3 0 -12 4 -19 9 -11 6 -9 15 7 42 40 65 20 151 -42
189 -25 16 -50 20 -119 20 l-88 0 0 -370z m195 295 c18 -17 25 -35 25 -63 0
-56 -32 -82 -109 -89 l-61 -6 0 92 0 91 60 0 c51 0 65 -4 85 -25z m47 -241
c62 -43 90 -104 86 -180 -4 -71 -34 -123 -94 -164 -29 -19 -53 -26 -111 -28
l-73 -4 0 207 0 208 76 -5 c62 -4 82 -10 116 -34z"/>
<path d="M17080 520 l0 -370 30 0 30 0 0 370 0 370 -30 0 -30 0 0 -370z"/>
<path d="M17840 520 l0 -370 170 0 170 0 0 25 0 25 -145 0 -145 0 0 345 0 345
-25 0 -25 0 0 -370z"/>
<path d="M18860 520 l0 -370 25 0 25 0 0 370 0 370 -25 0 -25 0 0 -370z"/>
<path d="M20780 521 l0 -371 25 0 25 0 0 125 0 125 64 0 64 0 81 -125 c74
-115 83 -125 111 -125 22 0 29 4 24 12 -5 7 -41 64 -81 126 -40 62 -73 116
-73 121 0 5 10 11 23 15 41 10 103 73 127 127 48 112 8 240 -94 304 -47 28
-56 30 -173 33 l-123 4 0 -371z m277 283 c21 -16 48 -50 61 -75 45 -86 10
-198 -77 -247 -31 -18 -55 -22 -125 -22 l-86 0 0 191 0 191 94 -4 c87 -3 97
-5 133 -34z"/>
<path d="M21850 520 l0 -370 30 0 30 0 0 370 0 370 -30 0 -30 0 0 -370z"/>
</g>
</svg>
