<?xml version="1.0" standalone="no"?>
<!DOCTYPE svg PUBLIC "-//W3C//DTD SVG 20010904//EN"
 "http://www.w3.org/TR/2001/REC-SVG-20010904/DTD/svg10.dtd">
<svg version="1.0" xmlns="http://www.w3.org/2000/svg"
 width="3508.000000pt" height="3508.000000pt" viewBox="0 0 3508.000000 3508.000000"
 preserveAspectRatio="xMidYMid meet">

<g transform="translate(0.000000,3508.000000) scale(0.100000,-0.100000)"
fill="#000000" stroke="none">
<path d="M26320 24329 c-525 -281 -1490 -797 -2145 -1146 -1308 -698 -1613
-861 -2215 -1184 l-405 -217 4 -579 3 -578 27 -27 c14 -15 469 -405 1011 -867
l984 -841 58 57 c32 32 58 60 58 64 0 4 -317 349 -703 768 l-704 762 -7 422
c-4 232 -3 423 1 424 4 2 159 85 343 184 184 99 1044 561 1910 1026 866 466
1685 906 1820 979 135 72 248 129 251 125 3 -3 -9 -1012 -27 -2241 -41 -2774
-134 -9139 -134 -9162 0 -17 22 -18 329 -18 l329 0 6 93 c3 50 8 295 11 542 3
248 10 729 15 1070 5 341 21 1439 35 2440 14 1001 46 3249 70 4995 49 3434 49
3420 38 3420 -5 -1 -438 -231 -963 -511z"/>
<path d="M28080 18555 l0 -6265 253 0 254 0 6 3113 c4 1711 7 4435 7 6053 l0
2941 -247 204 c-136 112 -253 208 -260 212 -11 7 -13 -1084 -13 -6258z"/>
<path d="M29390 18071 l0 -5781 245 0 245 0 0 5568 0 5567 -207 180 c-113 99
-223 195 -244 213 l-39 34 0 -5781z"/>
<path d="M30630 17491 l0 -5201 225 0 225 0 0 4998 -1 4997 -195 180 c-108 99
-209 190 -225 203 l-29 23 0 -5200z"/>
<path d="M21556 18546 c-8 -1924 -2 -3545 14 -3946 6 -129 17 -293 25 -365 63
-540 212 -965 456 -1295 79 -109 270 -300 379 -379 302 -223 661 -356 1110
-413 140 -17 623 -17 750 0 320 45 565 130 769 266 531 356 785 1034 841 2246
6 128 10 1135 10 2478 l0 2262 165 0 165 0 0 70 0 70 -360 0 -360 0 0 -70 0
-70 165 0 165 0 0 -2252 c0 -1339 -4 -2332 -10 -2448 -38 -749 -142 -1246
-341 -1629 -81 -155 -156 -258 -269 -372 -263 -264 -614 -397 -1132 -431 -454
-30 -843 62 -1110 262 -325 244 -541 705 -638 1365 -69 465 -70 516 -70 3341
l0 2541 -121 104 c-67 57 -222 190 -343 294 -122 105 -229 196 -237 202 -14
12 -17 -171 -23 -1831z"/>
<path d="M4002 19517 c3 -12 506 -1650 1118 -3639 l1113 -3618 374 0 c205 0
373 3 373 8 0 4 -38 128 -84 275 l-84 268 1022 3299 1021 3300 123 0 122 0 0
65 0 65 -305 0 -305 0 0 -65 0 -64 149 -3 148 -3 -988 -3180 c-544 -1749 -996
-3205 -1005 -3235 -11 -38 -18 -50 -24 -40 -4 8 -465 1491 -1025 3295 -559
1804 -1017 3280 -1018 3281 -1 1 -166 4 -366 7 l-363 6 4 -22z"/>
<path d="M9770 15915 l0 -3625 355 0 355 0 0 3625 0 3625 -355 0 -355 0 0
-3625z"/>
<path d="M12065 19530 c-302 -3 -551 -7 -552 -8 -2 -1 -3 -1631 -3 -3622 l0
-3620 355 0 355 0 1 2268 c0 2101 1 2265 16 2242 35 -53 151 -158 219 -199
197 -116 502 -185 892 -202 129 -5 281 -16 339 -24 677 -95 1133 -517 1378
-1276 157 -486 221 -1011 255 -2099 11 -344 28 -663 36 -692 5 -17 27 -18 285
-18 l280 0 -4 1083 c-3 956 -6 1095 -21 1197 -77 522 -261 901 -592 1220 -168
161 -314 264 -524 370 -242 121 -525 208 -840 257 l-55 9 110 18 c284 47 541
128 780 246 257 126 413 238 587 418 249 260 362 540 362 897 0 294 -68 514
-224 725 -302 406 -937 696 -1715 784 -318 36 -493 39 -1720 26z m1340 -70
c190 -22 331 -62 490 -139 127 -62 202 -131 248 -228 29 -62 32 -77 32 -163 0
-84 -3 -102 -28 -152 -67 -137 -268 -278 -777 -548 -739 -391 -973 -565 -1121
-832 l-29 -53 0 1063 0 1062 548 0 c308 0 586 -5 637 -10z m718 -136 c237 -83
449 -216 608 -380 173 -180 272 -375 326 -640 28 -137 25 -501 -5 -640 -44
-206 -109 -363 -216 -523 -271 -406 -746 -660 -1288 -690 -384 -20 -727 38
-993 168 -191 94 -290 200 -325 350 -28 119 7 302 82 429 50 86 205 235 348
334 162 113 420 266 695 414 555 296 760 445 841 609 61 123 56 266 -13 385
-36 62 -123 151 -192 197 -31 20 -60 41 -66 45 -12 10 70 -14 198 -58z"/>
<path d="M16376 19518 c-3 -13 -21 -183 -41 -378 -19 -195 -38 -372 -41 -392
-5 -35 -4 -38 19 -38 22 0 28 10 57 93 63 181 153 327 252 405 179 142 366
158 908 79 365 -54 459 -64 639 -73 l131 -7 0 -3459 0 -3458 344 0 344 0 6 23
c4 12 10 1569 13 3460 l6 3437 71 0 c115 0 330 18 665 56 490 54 682 47 847
-31 153 -73 261 -210 340 -430 25 -71 36 -91 53 -93 28 -4 28 -17 -19 439 -22
211 -40 385 -40 387 0 1 -1024 2 -2275 2 l-2275 0 -4 -22z"/>
<path d="M23827 11115 c-34 -40 -36 -45 -17 -45 18 0 130 75 130 86 0 2 -17 4
-38 4 -33 0 -43 -6 -75 -45z"/>
<path d="M9023 10962 c-75 -27 -130 -69 -179 -135 -58 -78 -69 -115 -69 -227
0 -85 3 -101 29 -155 38 -76 110 -149 184 -183 50 -24 69 -27 162 -27 95 0
111 3 162 28 75 37 159 128 189 204 30 79 30 195 -1 276 -29 76 -110 164 -187
202 -77 38 -209 46 -290 17z m274 -62 c68 -34 120 -87 155 -159 19 -37 23 -63
23 -136 0 -78 -4 -97 -28 -147 -32 -65 -100 -130 -167 -161 -68 -31 -197 -30
-268 2 -70 32 -154 123 -177 192 -39 115 -14 245 64 331 107 119 255 148 398
78z"/>
<path d="M13483 10962 c-100 -36 -180 -109 -225 -208 -19 -41 -23 -66 -23
-149 0 -87 3 -107 27 -157 35 -76 95 -138 170 -179 61 -33 67 -34 173 -34 102
0 114 2 168 29 68 35 150 118 180 183 18 40 22 66 22 158 0 96 -3 116 -24 158
-37 75 -104 142 -179 179 -57 28 -79 33 -152 36 -63 2 -99 -3 -137 -16z m262
-56 c68 -31 130 -93 164 -165 22 -47 26 -70 26 -141 -1 -77 -4 -91 -34 -148
-39 -71 -79 -110 -154 -149 -44 -23 -65 -27 -137 -28 -72 0 -94 4 -142 27 -70
33 -133 96 -166 168 -34 73 -36 191 -5 262 25 54 90 128 141 160 86 53 210 59
307 14z"/>
<path d="M14770 10958 c-75 -52 -98 -125 -61 -200 22 -46 68 -82 141 -113 113
-48 170 -115 170 -200 0 -129 -135 -214 -248 -156 -46 23 -67 46 -87 94 -15
35 -37 48 -50 27 -9 -14 23 -81 53 -113 48 -51 97 -70 172 -65 52 3 76 10 108
31 94 61 125 193 69 289 -32 55 -72 87 -170 133 -79 38 -126 81 -128 118 -4
64 16 100 66 124 45 22 108 5 133 -35 10 -17 24 -26 35 -24 23 5 22 24 -5 57
-44 57 -140 72 -198 33z"/>
<path d="M18828 10967 c-108 -41 -203 -130 -238 -224 -29 -78 -29 -199 0 -277
29 -75 113 -166 188 -203 52 -25 67 -28 167 -28 106 0 112 1 173 34 74 40 134
104 171 181 23 48 26 68 26 155 0 88 -3 107 -27 157 -34 74 -113 152 -186 186
-69 32 -212 41 -274 19z m258 -62 c134 -65 212 -221 184 -361 -22 -107 -90
-195 -190 -243 -47 -22 -68 -26 -140 -25 -102 0 -161 24 -230 94 -72 72 -95
128 -95 235 0 83 3 95 35 153 86 160 278 224 436 147z"/>
<path d="M23702 10612 c-73 -202 -132 -371 -132 -375 0 -5 10 -7 21 -5 18 2
31 28 73 143 l51 140 122 3 c142 3 123 18 182 -145 22 -59 42 -116 46 -125 8
-20 45 -25 45 -7 0 17 -264 739 -270 739 -3 0 -65 -166 -138 -368z m195 96
c29 -78 51 -144 49 -146 -2 -1 -51 -1 -108 0 l-105 3 51 142 c28 79 53 143 56
143 3 0 29 -64 57 -142z"/>
<path d="M26853 10962 c-100 -36 -180 -109 -225 -208 -19 -41 -23 -66 -23
-149 0 -87 3 -107 27 -157 35 -76 95 -138 170 -179 61 -33 67 -34 173 -34 102
0 114 2 168 29 68 35 150 118 180 183 18 40 22 66 22 158 0 96 -3 116 -24 158
-37 75 -104 142 -179 179 -57 28 -79 33 -152 36 -63 2 -99 -3 -137 -16z m262
-56 c68 -31 130 -93 164 -165 22 -47 26 -70 26 -141 -1 -77 -4 -91 -34 -148
-39 -71 -79 -110 -154 -149 -44 -23 -65 -27 -137 -28 -72 0 -94 4 -142 27 -70
33 -133 96 -166 168 -34 73 -36 191 -5 262 25 54 90 128 141 160 86 53 210 59
307 14z"/>
<path d="M28144 10961 c-68 -41 -96 -110 -75 -181 14 -46 81 -109 137 -128 62
-22 138 -78 162 -121 62 -110 -10 -246 -137 -259 -77 -7 -144 35 -176 111 -15
35 -37 48 -50 27 -9 -14 23 -81 53 -113 48 -51 97 -70 172 -65 52 3 76 10 108
31 94 61 125 193 69 289 -32 55 -72 87 -170 133 -79 38 -126 81 -128 118 -4
64 16 100 66 124 45 22 108 5 133 -35 10 -17 24 -26 35 -24 23 5 22 24 -5 57
-42 54 -136 72 -194 36z"/>
<path d="M6640 10601 l0 -371 25 0 25 0 0 129 0 129 98 4 c108 5 140 17 196
74 105 108 81 288 -48 369 -47 28 -56 30 -173 33 l-123 4 0 -371z m225 318
c86 -24 155 -130 139 -217 -20 -113 -107 -172 -251 -172 l-63 0 0 200 0 200
68 0 c37 0 85 -5 107 -11z"/>
<path d="M7710 10600 l0 -371 23 3 c21 3 22 7 25 131 l3 127 64 0 65 0 85
-130 c72 -111 88 -130 110 -130 31 0 35 -10 -69 150 l-74 114 36 17 c52 23
118 99 132 151 29 104 -14 217 -104 273 -47 28 -56 30 -173 33 l-123 4 0 -372z
m223 319 c43 -12 102 -59 121 -98 39 -77 24 -163 -39 -226 -47 -48 -100 -65
-194 -65 l-61 0 0 200 0 200 68 0 c37 0 84 -5 105 -11z"/>
<path d="M10430 10651 c0 -305 -1 -319 -20 -344 -44 -56 -137 -40 -161 27 -14
38 -39 39 -39 1 0 -52 70 -105 140 -105 56 0 108 48 121 110 4 25 8 177 9 338
l0 292 -25 0 -25 0 0 -319z"/>
<path d="M11180 10600 l0 -370 185 0 185 0 0 25 0 25 -160 0 -160 0 0 150 0
150 160 0 160 0 0 25 0 25 -160 0 -160 0 0 150 0 150 160 0 c153 0 160 1 160
20 0 19 -7 20 -185 20 l-185 0 0 -370z"/>
<path d="M12200 10950 c0 -19 7 -20 90 -20 l90 0 2 -347 3 -348 23 -3 22 -3 0
350 0 351 90 0 c83 0 90 1 90 20 0 19 -7 20 -205 20 -198 0 -205 -1 -205 -20z"/>
<path d="M16470 10600 c0 -363 0 -370 20 -370 20 0 20 7 20 370 0 363 0 370
-20 370 -20 0 -20 -7 -20 -370z"/>
<path d="M17222 10603 l3 -368 23 -3 22 -3 0 328 c0 324 1 328 19 298 10 -16
73 -124 139 -238 l120 -208 82 143 c46 79 108 186 139 238 l56 95 3 -327 c2
-320 3 -328 22 -328 20 0 20 8 20 371 l0 370 -26 -3 c-22 -3 -44 -35 -155
-228 -72 -124 -133 -228 -137 -232 -4 -4 -68 99 -142 227 -125 217 -137 235
-163 235 l-27 0 2 -367z"/>
<path d="M20012 10603 l3 -368 97 1 c112 2 166 22 219 81 45 52 62 99 62 173
1 95 -53 189 -128 224 l-36 17 26 30 c33 40 35 114 4 153 -35 44 -70 56 -164
56 l-85 0 2 -367z m204 293 c25 -29 31 -74 14 -107 -16 -29 -64 -49 -120 -49
l-50 0 0 96 0 96 66 -4 c58 -4 70 -8 90 -32z m25 -227 c117 -65 144 -216 56
-315 -46 -53 -95 -74 -172 -74 l-65 0 0 211 0 212 69 -5 c46 -4 83 -13 112
-29z"/>
<path d="M21080 10599 l0 -370 23 3 22 3 3 368 2 367 -25 0 -25 0 0 -371z"/>
<path d="M21840 10600 l0 -370 165 0 165 0 0 25 0 25 -145 0 -145 0 0 345 c0
338 0 345 -20 345 -20 0 -20 -7 -20 -370z"/>
<path d="M22852 10603 l3 -368 23 -3 22 -3 0 370 0 371 -25 0 -25 0 2 -367z"/>
<path d="M24770 10601 l0 -371 25 0 25 0 0 130 0 130 68 0 67 -1 79 -125 c80
-126 91 -139 121 -132 13 2 -1 31 -64 127 -45 68 -81 127 -81 130 1 3 24 20
53 36 35 20 61 46 82 79 27 44 30 58 30 126 0 68 -3 82 -30 126 -19 30 -49 60
-79 79 -47 28 -56 30 -173 33 l-123 4 0 -371z m223 318 c43 -11 101 -59 122
-98 36 -72 26 -156 -27 -217 -46 -52 -81 -66 -180 -72 l-88 -5 0 202 0 201 68
0 c37 0 84 -5 105 -11z"/>
<path d="M25850 10599 l0 -370 23 3 22 3 3 368 2 367 -25 0 -25 0 0 -371z"/>
</g>
</svg>
