<?xml version="1.0" standalone="no"?>
<!DOCTYPE svg PUBLIC "-//W3C//DTD SVG 20010904//EN"
 "http://www.w3.org/TR/2001/REC-SVG-20010904/DTD/svg10.dtd">
<svg version="1.0" xmlns="http://www.w3.org/2000/svg"
 width="3508.000000pt" height="3508.000000pt" viewBox="0 0 3508.000000 3508.000000"
 preserveAspectRatio="xMidYMid meet">

<g transform="translate(0.000000,3508.000000) scale(0.100000,-0.100000)"
fill="#000000" stroke="none">
<path d="M0 17540 l0 -17540 17540 0 17540 0 0 17540 0 17540 -17540 0 -17540
0 0 -17540z m35070 0 l0 -17530 -17530 0 -17530 0 0 17530 0 17530 17530 0
17530 0 0 -17530z"/>
<path d="M24420 23306 l-2865 -1533 3 -229 c1 -126 2 -387 2 -581 l0 -351
1005 -859 c553 -472 1010 -859 1017 -861 7 -1 38 22 67 52 l55 55 -20 23 c-10
12 -316 344 -679 738 -363 393 -675 732 -693 753 l-32 38 2 415 3 415 2160
1158 2160 1158 3 -121 c1 -66 -34 -2579 -78 -5583 -44 -3004 -80 -5520 -80
-5592 l0 -131 333 2 332 3 3 120 c1 66 40 2809 87 6095 46 3286 86 6059 87
6163 2 103 1 187 -2 186 -3 0 -1294 -690 -2870 -1533z"/>
<path d="M28077 24047 c-4 -425 -7 -3246 -7 -6269 l0 -5498 265 0 265 0 0
6058 -1 6057 -171 140 c-94 77 -210 172 -258 212 l-87 71 -6 -771z"/>
<path d="M29390 18060 l0 -5780 245 0 245 0 0 5569 0 5569 -240 211 c-131 116
-242 211 -245 211 -3 0 -5 -2601 -5 -5780z"/>
<path d="M30620 17491 l0 -5211 230 0 230 0 0 4999 0 4999 -177 163 c-98 90
-202 186 -230 213 l-53 49 0 -5212z"/>
<path d="M21557 18492 c-6 -1966 4 -3887 23 -4102 88 -1041 465 -1692 1175
-2031 515 -247 1280 -310 1850 -154 446 122 748 374 960 800 202 407 303 915
335 1695 5 134 10 1193 10 2463 l0 2227 165 0 165 0 0 70 0 70 -360 0 -360 0
0 -70 0 -70 165 0 165 0 0 -2267 c0 -2483 -2 -2578 -61 -3033 -100 -777 -346
-1292 -744 -1555 -251 -166 -525 -247 -930 -276 -521 -36 -941 81 -1216 340
-123 114 -206 230 -292 401 -133 264 -219 575 -272 977 -51 395 -49 248 -52
3119 l-4 2670 -335 290 c-185 159 -346 297 -358 306 l-23 17 -6 -1887z"/>
<path d="M4000 19521 c0 -12 2217 -7220 2230 -7248 l10 -23 370 0 c203 0 370
2 370 5 0 3 -38 128 -84 277 l-85 271 1022 3298 1021 3299 117 0 c132 0 129
-2 129 88 l0 42 -305 0 -305 0 0 -65 0 -64 149 -3 149 -3 -1004 -3229 c-552
-1776 -1006 -3231 -1008 -3234 -7 -6 116 -400 -1032 3303 -559 1804 -1017
3281 -1017 3281 -10 7 -727 12 -727 5z"/>
<path d="M9770 15905 l0 -3625 355 0 355 0 0 3625 0 3625 -355 0 -355 0 0
-3625z"/>
<path d="M11990 19520 c-261 -3 -476 -7 -477 -8 -2 -1 -3 -1629 -3 -3617 l0
-3615 355 0 355 0 0 2266 0 2267 26 -39 c82 -122 223 -217 424 -282 215 -71
401 -100 710 -112 379 -15 566 -54 805 -170 554 -269 888 -851 1034 -1805 52
-340 79 -712 101 -1395 11 -354 28 -685 36 -712 5 -17 27 -18 285 -18 l279 0
0 969 c0 585 -4 1030 -11 1123 -39 571 -220 1005 -563 1356 -218 224 -466 385
-775 507 -167 65 -461 141 -624 160 -32 4 -56 9 -54 11 2 2 66 15 143 29 407
75 729 200 1014 393 373 253 590 559 657 927 23 122 22 361 -1 478 -91 467
-417 804 -1011 1042 -354 142 -731 218 -1220 245 -184 10 -636 10 -1485 0z
m1477 -76 c261 -38 510 -145 613 -262 22 -24 52 -70 67 -101 24 -49 27 -68 28
-156 0 -90 -3 -106 -28 -157 -68 -137 -273 -281 -807 -563 -699 -369 -941
-549 -1084 -805 l-36 -65 0 1063 0 1062 571 0 c465 0 591 -3 676 -16z m621
-116 c536 -183 856 -517 963 -1002 27 -119 37 -414 19 -553 -87 -701 -619
-1213 -1369 -1317 -128 -18 -429 -21 -566 -6 -320 36 -621 146 -767 280 -96
88 -140 178 -146 300 -10 211 84 410 267 565 190 161 414 299 996 615 307 166
526 311 622 411 135 141 166 318 87 485 -32 68 -124 168 -202 220 -100 67 -93
67 96 2z"/>
<path d="M16375 19498 c-3 -18 -21 -190 -40 -383 -19 -192 -38 -365 -41 -382
-4 -30 -2 -33 19 -33 19 0 26 8 36 43 75 252 213 444 372 520 173 83 337 86
829 14 304 -45 439 -60 643 -72 l107 -7 0 -3459 0 -3459 344 0 343 0 7 183 c3
100 9 1657 13 3460 l6 3277 21 0 c111 1 430 27 691 57 395 45 620 50 747 15
126 -34 185 -68 273 -157 89 -89 147 -186 195 -329 22 -64 32 -82 49 -84 16
-3 21 2 21 20 0 13 -18 196 -40 407 -22 211 -40 388 -40 393 0 4 -1024 8
-2275 8 l-2274 0 -6 -32z"/>
<path d="M23827 11112 c-42 -43 -45 -52 -17 -52 18 0 130 75 130 86 0 2 -17 4
-38 4 -31 0 -45 -7 -75 -38z"/>
<path d="M9054 10966 c-103 -26 -199 -104 -251 -206 -25 -50 -28 -65 -28 -160
0 -93 3 -112 27 -162 35 -76 95 -138 170 -179 61 -33 67 -34 173 -34 100 0
115 2 167 28 163 80 248 263 204 437 -30 117 -129 229 -236 265 -63 22 -166
27 -226 11z m232 -71 c67 -30 129 -93 162 -164 39 -82 38 -193 -1 -273 -36
-74 -120 -151 -188 -173 -72 -24 -197 -17 -258 14 -67 35 -136 111 -161 178
-29 76 -25 196 8 260 86 166 273 234 438 158z"/>
<path d="M13524 10970 c-112 -23 -233 -129 -274 -237 -26 -69 -29 -196 -6
-259 33 -94 111 -180 201 -224 73 -36 217 -41 298 -10 70 26 162 108 199 177
129 240 -35 539 -307 557 -38 3 -89 1 -111 -4z m213 -70 c52 -23 127 -92 158
-144 94 -164 21 -381 -156 -461 -56 -25 -70 -27 -148 -23 -129 7 -216 60 -276
170 -24 44 -30 68 -33 140 -4 77 -2 92 22 145 28 61 80 121 132 153 81 51 212
59 301 20z"/>
<path d="M14797 10966 c-70 -26 -107 -76 -107 -146 0 -86 42 -133 166 -189 77
-36 130 -80 150 -128 35 -81 -1 -179 -80 -220 -38 -20 -114 -20 -153 0 -40 21
-83 72 -90 109 -5 24 -9 27 -27 22 -29 -9 -29 -10 -22 -37 8 -35 46 -86 89
-121 31 -25 49 -31 101 -34 83 -5 129 11 180 62 123 123 71 298 -114 384 -119
55 -149 86 -150 153 0 45 29 84 74 99 46 15 80 4 114 -34 23 -27 33 -31 51
-25 18 7 20 12 12 27 -15 29 -79 82 -99 82 -9 0 -26 2 -37 5 -11 3 -37 -2 -58
-9z"/>
<path d="M18865 10970 c-188 -39 -320 -218 -301 -410 13 -129 98 -250 216
-308 50 -24 65 -27 165 -27 95 0 116 3 158 24 70 35 139 101 178 173 33 61 34
67 34 173 0 130 -16 175 -91 256 -99 104 -224 146 -359 119z m198 -66 c61 -21
135 -88 172 -155 40 -74 47 -188 16 -270 -27 -72 -84 -137 -152 -174 -72 -39
-191 -47 -270 -19 -70 25 -151 100 -185 171 -39 79 -40 193 -3 273 76 163 248
234 422 174z"/>
<path d="M23700 10609 c-74 -204 -137 -376 -139 -381 -2 -5 10 -8 25 -6 27 3
31 11 80 143 l51 140 124 0 123 0 51 -140 c48 -131 53 -140 79 -143 16 -2 27
1 25 6 -2 5 -65 177 -139 381 -74 204 -137 371 -140 371 -3 0 -66 -167 -140
-371z m194 92 c25 -71 46 -132 46 -135 0 -3 -45 -6 -101 -6 -77 0 -100 3 -97
13 55 157 93 257 99 257 3 0 27 -58 53 -129z"/>
<path d="M26894 10970 c-103 -21 -212 -109 -260 -206 -47 -96 -49 -229 -6
-328 29 -64 110 -147 179 -182 48 -24 72 -29 153 -32 79 -3 105 0 153 18 70
26 162 108 199 177 129 240 -35 539 -307 557 -38 3 -89 1 -111 -4z m223 -76
c69 -33 146 -118 169 -186 55 -166 -20 -342 -177 -413 -56 -25 -70 -27 -148
-23 -129 7 -216 60 -276 170 -39 71 -47 190 -19 269 21 57 85 136 138 168 88
55 218 61 313 15z"/>
<path d="M28167 10966 c-77 -28 -112 -81 -105 -162 7 -78 39 -114 151 -167 94
-46 148 -91 166 -140 30 -79 -7 -175 -83 -214 -38 -20 -114 -20 -153 0 -40 21
-83 72 -90 108 -6 30 -18 35 -42 20 -43 -27 69 -172 143 -186 116 -22 210 20
259 114 65 129 9 251 -152 328 -122 58 -150 87 -151 154 0 45 29 84 74 99 46
15 80 4 114 -34 23 -27 33 -31 51 -25 18 7 20 12 12 27 -15 29 -79 82 -99 82
-9 0 -26 2 -37 5 -11 3 -37 -2 -58 -9z"/>
<path d="M6640 10596 l0 -376 25 0 25 0 0 129 0 129 98 4 c89 3 103 6 148 33
68 43 107 108 112 190 5 78 -10 126 -56 177 -61 67 -100 82 -234 86 l-118 4 0
-376z m260 299 c18 -11 47 -37 64 -58 26 -32 31 -48 34 -105 3 -59 0 -72 -23
-107 -47 -71 -85 -89 -192 -93 l-93 -4 0 197 0 197 88 -4 c64 -3 98 -9 122
-23z"/>
<path d="M7710 10596 l0 -376 25 0 25 0 0 130 0 130 64 0 64 0 84 -130 c73
-115 86 -130 111 -130 15 0 27 2 27 5 0 3 -37 63 -82 132 -52 80 -78 128 -70
131 7 2 34 18 59 35 120 81 139 262 40 365 -59 62 -99 76 -229 80 l-118 4 0
-376z m260 299 c109 -65 134 -206 52 -297 -49 -54 -85 -68 -182 -68 l-80 0 0
196 0 196 88 -4 c64 -3 98 -9 122 -23z"/>
<path d="M10430 10661 c0 -317 -5 -362 -40 -381 -45 -24 -140 5 -140 43 0 22
-16 38 -32 32 -23 -9 -6 -61 31 -99 22 -22 41 -30 78 -33 67 -7 109 15 134 70
17 38 19 69 19 360 l0 317 -25 0 -25 0 0 -309z"/>
<path d="M11180 10595 l0 -375 185 0 185 0 0 25 0 25 -160 0 -160 0 0 150 0
150 160 0 160 0 0 25 0 25 -160 0 -160 0 0 150 0 150 160 0 160 0 0 25 0 25
-185 0 -185 0 0 -375z"/>
<path d="M12200 10945 c0 -25 1 -25 90 -25 l90 0 0 -350 0 -350 25 0 25 0 0
350 0 350 95 0 c95 0 95 0 95 25 l0 25 -210 0 -210 0 0 -25z"/>
<path d="M16460 10595 l0 -375 25 0 25 0 0 375 0 375 -25 0 -25 0 0 -375z"/>
<path d="M17220 10596 l0 -376 25 0 25 0 0 323 c1 255 3 319 13 306 7 -9 68
-114 137 -233 111 -192 126 -214 138 -199 7 10 68 113 135 230 l122 211 5
-316 5 -317 23 -3 22 -3 0 375 0 376 -24 0 c-21 0 -41 -30 -151 -222 -71 -123
-133 -229 -139 -235 -9 -10 -43 42 -146 220 -120 206 -138 232 -163 235 l-27
3 0 -375z"/>
<path d="M20010 10594 l0 -377 103 5 c121 7 165 25 221 89 69 81 84 195 37
287 -18 36 -104 122 -121 122 -4 0 3 21 16 47 29 56 29 66 4 121 -27 59 -78
81 -182 82 l-78 0 0 -376z m181 311 c55 -29 64 -92 20 -136 -26 -26 -36 -29
-90 -29 l-61 0 0 90 0 90 50 0 c28 0 64 -7 81 -15z m56 -251 c131 -77 130
-272 -3 -350 -33 -20 -64 -28 -115 -32 l-69 -5 0 213 0 213 72 -7 c50 -4 85
-14 115 -32z"/>
<path d="M21080 10595 l0 -375 25 0 25 0 0 375 0 375 -25 0 -25 0 0 -375z"/>
<path d="M21840 10596 l0 -376 165 0 165 0 0 25 0 25 -140 0 -140 0 -2 348 -3
347 -22 3 -23 3 0 -375z"/>
<path d="M22850 10595 l0 -375 25 0 25 0 0 375 0 375 -25 0 -25 0 0 -375z"/>
<path d="M24770 10596 l0 -376 25 0 25 0 0 130 0 130 65 0 65 0 67 -106 c93
-145 100 -154 130 -154 32 0 32 0 -61 144 -43 65 -76 119 -74 120 2 1 24 14
50 29 81 47 118 112 118 209 0 70 -19 121 -63 166 -59 62 -99 76 -229 80
l-118 4 0 -376z m223 313 c47 -13 106 -63 123 -106 24 -57 18 -133 -15 -185
-41 -65 -94 -88 -199 -88 l-82 0 0 195 0 195 68 0 c37 0 84 -5 105 -11z"/>
<path d="M25850 10595 l0 -375 25 0 25 0 0 375 0 375 -25 0 -25 0 0 -375z"/>
</g>
</svg>
